<?xml version="1.0" encoding="utf-8"?>
<!-- Generator: Adobe Illustrator 18.1.1, SVG Export Plug-In . SVG Version: 6.00 Build 0)  -->
<svg version="1.1" xmlns="http://www.w3.org/2000/svg" xmlns:xlink="http://www.w3.org/1999/xlink" x="0px" y="0px"
	 viewBox="0 0 601.2 161.1" enable-background="new 0 0 601.2 161.1" xml:space="preserve">
<g id="Clear_Space_Grid" display="none">
	<g display="inline" opacity="0.5">
		<line fill="none" stroke="#414042" stroke-width="0.394" x1="-77.9" y1="161.2" x2="682" y2="161.2"/>
		<line fill="none" stroke="#414042" stroke-width="0.394" x1="124.6" y1="237.1" x2="124.6" y2="-77.1"/>
		<line fill="none" stroke="#414042" stroke-width="0.394" x1="446.7" y1="237.1" x2="446.7" y2="-77.1"/>
		<line fill="none" stroke="#414042" stroke-width="0.394" x1="202.5" y1="238.4" x2="202.5" y2="-78.4"/>
		<line fill="none" stroke="#414042" stroke-width="0.394" x1="363.5" y1="237.1" x2="363.5" y2="-77.1"/>
		<line fill="none" stroke="#414042" stroke-width="0.394" x1="41.5" y1="237.1" x2="41.5" y2="-77.1"/>
		<line fill="none" stroke="#414042" stroke-width="0.394" x1="524.6" y1="237.1" x2="524.6" y2="-77.1"/>
		<line fill="none" stroke="#414042" stroke-width="0.394" x1="-39.2" y1="237.1" x2="-39.2" y2="-77.1"/>
		<line fill="none" stroke="#414042" stroke-width="0.394" x1="0" y1="237.1" x2="0" y2="-77.1"/>
		<line fill="none" stroke="#414042" stroke-width="0.394" x1="280.4" y1="237.1" x2="280.4" y2="-77.1"/>
		<line fill="none" stroke="#414042" stroke-width="0.394" x1="602.5" y1="237.1" x2="602.5" y2="-77.1"/>
		<polygon fill="none" stroke="#414042" stroke-width="0.5" points="-77.8,-77.7 -77.8,237.7 682,237.7 682,-77.7 306.9,-77.7 		"/>
		<line fill="none" stroke="#414042" stroke-width="0.394" x1="-77.9" y1="0" x2="682" y2="0"/>
		<line fill="none" stroke="#414042" stroke-width="0.394" x1="-77.9" y1="80.6" x2="682" y2="80.6"/>
		<line fill="none" stroke="#414042" stroke-width="0.394" x1="-77.8" y1="-78.4" x2="-77.8" y2="238.4"/>
	</g>
</g>
<g id="Logotype">
	<path fill="#3AA8D2" d="M507.6,121.1v35.8c0,2.3,1.9,4.3,4.2,4.3h25.5c2.3,0,4.2-1.9,4.2-4.3v-50.6c0-3.3-3.5-5.3-6.4-3.7
		l-25.5,14.8C508.4,118.1,507.6,119.5,507.6,121.1 M541.6,40.1V4.3c0-2.3-1.9-4.3-4.2-4.3h-25.5c-2.3,0-4.2,1.9-4.2,4.3v50.6
		c0,3.3,3.5,5.3,6.4,3.7l25.5-14.8C540.8,43,541.6,41.6,541.6,40.1 M551.1,115.6l31,17.9c2,1.2,4.6,0.5,5.8-1.6l12.8-22.1
		c1.2-2,0.5-4.6-1.6-5.8l-43.7-25.3c-2.8-1.6-6.4,0.4-6.4,3.7v29.5C549,113.4,549.8,114.8,551.1,115.6 M498.1,45.6l-31-17.9
		c-2-1.2-4.6-0.5-5.8,1.6l-12.8,22.1c-1.2,2-0.5,4.6,1.6,5.8l43.7,25.3c2.8,1.6,6.4-0.4,6.4-3.7V49.3
		C500.2,47.7,499.4,46.3,498.1,45.6 M568.1,75.1l31-17.9c2-1.2,2.7-3.8,1.6-5.8l-12.8-22.1c-1.2-2-3.8-2.7-5.8-1.6L538.3,53
		c-2.8,1.6-2.8,5.7,0,7.4l25.5,14.8C565.2,75.8,566.8,75.8,568.1,75.1 M485.3,86.1l25.5,14.8c2.8,1.6,2.8,5.7,0,7.4l-43.7,25.3
		c-2,1.2-4.6,0.5-5.8-1.6l-12.8-22.1c-1.2-2-0.5-4.6,1.6-5.8l31-17.9C482.4,85.3,484,85.3,485.3,86.1"/>
	<path fill="#F5F7FA" d="M65.6,114c0,2.5-1.9,4.6-4.3,4.6c-2.4,0-4.5-2.1-4.5-4.6V74.6c0-13.4-10.1-24.7-24.1-24.7
		c-14.1,0-23.9,11.3-23.9,24.7V114c0,2.5-1.9,4.6-4.3,4.6c-2.5,0-4.5-2.1-4.5-4.6v-38c0-17.6,13.2-33.4,32.9-33.4
		c9.8,0,21.9,4.8,28.3,16.7c6.5-11.9,18.6-16.7,28.4-16.7c19.6,0,32.9,15.8,32.9,33.4v38c0,2.5-1.9,4.6-4.5,4.6
		c-2.4,0-4.3-2.1-4.3-4.6V74.6c0-13.4-9.8-24.7-24-24.7c-14,0-24.1,11.3-24.1,24.7V114z"/>
	<path fill="#F5F7FA" d="M172.4,49.7c-16.8,0-29.6,14-29.6,30.7s12.3,31.2,29.6,31.2s29.8-14.5,29.8-31.2S189.5,49.7,172.4,49.7
		 M172.4,118.6c-21.7,0-38.2-16.8-38.2-38.2s17-37.9,38.2-37.9s38.4,16.7,38.4,37.9C210.8,101.3,193.8,118.6,172.4,118.6"/>
	<path fill="#F5F7FA" d="M284.9,80.4c0-18.2-12.3-30.7-28.4-30.7c-16.1,0-28.4,14-28.4,30.7s11.9,31.1,28.4,31.1
		C273,111.6,284.9,98.6,284.9,80.4 M293.5,114c0,2.5-1.8,4.6-4.3,4.6c-2.5,0-4.3-2.1-4.3-4.6v-10c-3.6,5.8-12.9,14.6-28.7,14.6
		c-20.8,0-36.7-16.8-36.7-38.2c0-21.3,16.4-37.9,36.7-37.9c15.8,0,25.3,8.6,28.7,14.5V22.5c0-2.4,1.8-4.5,4.3-4.5
		c2.5,0,4.3,2.1,4.3,4.5V114z"/>
	<path fill="#F5F7FA" d="M319.7,114c0,2.5-1.8,4.6-4.3,4.6c-2.5,0-4.3-2.1-4.3-4.6V47c0-2.4,1.8-4.5,4.3-4.5c2.5,0,4.3,2.1,4.3,4.5
		V114z M315.3,20.2c3.9,0,7,3,7,6.9c0,4-3.1,7-7,7c-3.7,0-7-3-7-7C308.4,23.2,311.6,20.2,315.3,20.2"/>
	<path fill="#F5F7FA" d="M371.5,49.7c-16.8,0-29.6,14-29.6,30.7s12.3,31.2,29.6,31.2c17.3,0,29.8-14.5,29.8-31.2
		S388.7,49.7,371.5,49.7 M371.5,118.6c-21.7,0-38.2-16.8-38.2-38.2s17-37.9,38.2-37.9c21.3,0,38.4,16.7,38.4,37.9
		C409.9,101.3,393,118.6,371.5,118.6"/>
</g>
</svg>
